<svg xmlns="http://www.w3.org/2000/svg" xmlns:xlink="http://www.w3.org/1999/xlink" version="1.1" x="0px" y="0px" width="500px" height="500px" viewBox="0 0 500 500" enable-background="new 0 0 500 500" xml:space="preserve"><path d="M89.508 40.531c-0.251 0.669-0.501 1.588-0.836 2.34c-0.25 0.502-0.668 0.92-0.919 1.5 c-0.668 1.838-1.337 3.76-2.173 5.599c-0.417 0.668-0.919 1.337-1.253 2.006c-0.418 0.919-0.501 1.587-0.919 2.42 c-0.167 0.335-0.418 0.585-0.585 0.836c-0.084 0.585-0.084 1.086-0.418 1.671c-0.25 0.418-0.668 0.836-0.835 1.25 c-0.084 0.501-0.084 1.086-0.251 1.671c-0.418 0.836-1.17 1.672-1.588 2.675c-0.167 0.42 0 0.668-0.25 1.09 c0 0.251-0.334 0.418-0.418 0.669c-0.334 0.585-0.334 1.253-0.585 1.838c-0.417 0.753-0.919 1.17-1.253 1.84 c-0.417 1.254-0.501 2.507-1.588 3.343c0.25 1.588-1.253 2.423-1.838 3.51c-0.167 0.25-0.167 0.835-0.25 1.25 c-0.251 0.334-0.501 0.668-0.669 1.086c0 0.25 0 0.84 0 1.254c-0.501 1.671-2.172 3.76-3.008 5.85 c-0.167 0.25 0 0.669-0.167 0.92c-0.25 0.668-0.919 1.003-0.835 2.173c0 0.417-0.752 1.253-1.086 1.67 c-0.251 0.669-0.251 1.253-0.668 1.755c-0.251 0.585-0.668 1.087-0.919 1.672c-0.668 1.42-1.086 2.841-1.755 3.93 c-1.421 0.251-2.758 0.251-4.178 0.251c-0.752-0.083-1.421-0.083-2.006-0.418c-0.417-0.083-1.086 0-1.086-0.501 c0.167-0.585 0.418-1.003 0.585-1.421c0.251-0.668 0.501-1.421 0.836-2.089c0.25-0.753 0.501-1.254 0.919-1.839 c0.251-0.501 0.418-1.086 0.752-1.671c0.417-0.502 0.752-1.087 1.17-1.588c0.668-3.427 3.426-5.516 4.513-8.69 c0.25-0.753 0.167-1.421 0.417-2.09c0.251-0.836 1.003-1.421 1.337-2.256c0.501-1.17 0.501-2.424 0.919-3.594 c0.167-0.334 0.418-0.585 0.585-0.836c0.083-0.417 0-0.835 0.083-1.253c0.334-1.087 1.17-2.424 1.588-3.51 c0.501-1.087 1.504-2.257 1.086-3.761c-0.585-0.084-0.752 0.752-1.086 1.003c-0.752 0.668-1.671 1.086-2.005 2.09 c-2.006 1.337-3.092 3.928-5.265 5.098c-0.25 0.585-0.668 0.836-1.002 1.254c-1.588 1.086-4.178 1.002-6.518 1.09 c-1.755-0.668-1.086-3.092-1.253-5.683c0-1.003-0.251-2.089-0.251-3.009c0-0.417 0.083-2.256-0.418-2.674 c-0.836-0.25-1.17 1.421-1.337 1.922c-0.167 0.585-0.418 1.17-0.668 1.672c-0.836 1.42-1.421 3.009-2.089 4.35 c-1.253 2.925-2.34 6.017-3.76 8.941c-0.167 0.084-0.585 0.501-0.585 0.836c0.167 1.086-0.251 2.089-0.836 3.09 c-0.25 0.501-0.501 0.919-0.835 1.504c-0.083 0.418-0.251 0.919-0.418 1.337c-0.25 0.418-0.668 0.752-0.919 1.17 c-0.251 0.418-0.418 0.919-0.669 1.588c-0.167 0.251-0.752 0.919-0.752 1.337c0 0.669-0.251 1.421-0.501 2.09 c-0.167 0.668-0.585 1.504-0.836 2.34c-0.167 0.417-0.334 1.002-0.501 1.587c-0.167 0.418-0.251 1.003-0.585 1.34 c-0.919 1.253-3.844 0.585-5.181 0.752c-0.668 0-1.504 0.083-2.173 0.083c-0.417-0.083-1.253 0-1.504-0.25 c-0.418-0.585 0.835-2.09 1.086-2.508c0.167-0.501 0.167-1.002 0.25-1.253c0.334-0.585 0.752-1.003 1.17-1.672 c0.585-1.086 1.17-2.256 1.838-3.343c0.418-0.501 0.585-1.337 0.835-1.838c0.418-0.669 1.086-1.254 1.337-2.089 c1.002-2.173 1.17-4.764 2.089-6.686c0.167-0.418 0.418-0.92 0.836-1.672c0.334-0.418 0.919-0.835 1.002-1.337 c0.167-0.418 0-1.337 0.167-1.755c0.167-0.501 0.585-0.835 0.668-1.253c0.334-0.418 0.334-1.087 0.417-1.505 c0.418-0.919 1.003-1.755 1.421-2.757c0.501-1.756 1.253-3.511 2.006-5.182c0.334-0.836 0.752-1.671 1.002-2.507 c0.501-0.752 0.752-1.254 1.337-1.839c0.25-0.418 0.501-0.835 0.835-1.254c0.418-0.751 0.835-1.754 1.253-2.59 c0.752-2.006 1.337-3.761 1.922-5.683c0.084-0.752 0.752-1.17 1.086-1.922c0.418-0.836 0.502-2.173 0.919-3.259 c0.251-0.752 0.836-1.421 1.17-2.09c0.334-0.668 0.752-1.755 1.253-2.006c0.585-0.25 1.67 0 2.67 0 c0.919 0.17 1.84 0.17 2.84 0c0.919 0 2.423-0.417 2.17 0.92c-0.25 1.504-0.585 2.841-0.668 4.26 c0 0.42 0.08 0.92 0.08 1.504c0 0.251-0.25 0.669-0.417 1.087c0 0.75 0 1.59 0 2.256c-0.251 1.839-0.919 3.594-1.086 5.6 c0 0.34 0.17 0.59 0.17 0.836c0 0.335-0.25 0.669-0.25 1.003c-0.167 0.42 0 0.84 0 1.254c-0.167 0.418-0.334 0.752-0.418 1.17 c-0.167 1.253-0.167 2.423-0.167 3.677c0 0.58 0 1.09 0 1.671c0 0.251-0.251 0.84 0 1.087c0.25 0.25 0.835-0.084 1.086-0.418 c0.585-0.502 0.836-1.504 1.421-2.173c0.668-0.836 1.755-1.421 2.423-2.089c0-1.003 0.669-1.337 1.337-2.006 c0.25-0.418 0.25-0.919 0.585-1.254c0.501-0.668 1.337-0.919 2.005-1.587c0.334-0.418 0.418-1.003 0.752-1.421 c0.251-0.418 0.752-0.669 1.086-1.003c0.251-0.334 0.251-0.836 0.501-1.17c0.752-0.836 1.755-1.337 2.423-2.006 c0.418-0.585 0.752-1.253 1.17-1.838c0.334-0.251 0.919-0.502 1.17-0.92c0.835-1.086 1.253-2.172 1.838-3.259 c0.501-1.003 1.504-1.838 2.089-2.758c0.585-1.003 1.003-2.173 2.089-2.591c2.34 0.34 5.014-0.668 7.02 0.17 C90.344 38.78 89.93 39.7 89.51 40.531z"/><path d="M105.568 144.745c0.668 0.418-0.083 1.337-0.167 1.839c-0.084 0.418-0.084 0.668-0.167 1.09 c-0.25 0.418-0.417 0.753-0.668 1.338c-1.253 2.924-2.758 6.434-3.51 9.358c-0.585 0.92-1.086 2.006-1.588 3.09 c-0.585 0.919-1.42 2.005-1.504 3.092c-0.083 1 0.08 1.755-0.167 2.841c-0.084 0.418-0.167 0.669-0.334 1.09 c-0.25 0.25-0.25 0.752-0.25 1.086c-0.167 0.334-0.669 0.501-0.836 0.919c-0.25 0.502-0.334 1.171-0.418 1.59 c-0.417 0.919-0.585 1.505-1.002 2.758c-0.251 0.502-0.418 0.92-0.501 1.337c-0.334 1.17-0.418 1.922-0.919 2.76 c-0.167 0.669-0.836 1.087-1.253 1.922c-0.668 1.17-0.919 2.758-1.504 4.346c-0.25 0.836-0.585 1.588-1.002 2.76 c-0.251 1.337-1.337 3.343-0.752 5.349c0.418 1.25 1.5 1.84 3.26 1.42c1.253-0.167 1.588-0.501 2.674-1.337 c0.501-0.334 1.17-0.836 1.42-1.17c0.668-1.003 0.836-2.674 1.253-3.761c0.334-1.17 0.836-2.59 1.588-3.593 c0.334-0.418 0.752-0.836 1.003-1.254c0.167-0.334 0.334-0.668 0.585-0.919c0.334-0.669 0.835-1.17 1.086-1.839 c0.084-0.334 0-0.668 0.167-1.003c0.083-0.417 0.501-0.668 0.585-0.919c0.25-0.334 0.25-0.668 0.25-1.086 c0.167-0.334 0.418-0.502 0.585-0.919c0.083-0.251 0-0.669 0.25-1.003c0.167-0.418 0.167-0.752 0.25-1.337 c0.083-0.251 0.083-0.502 0.083-0.753c0.501-1.002 0.836-2.172 1.337-3.677c0.167-0.585 0.25-1.421 0.501-2.089 c0.334-0.585 0.836-0.919 1.086-1.337c0.251-0.836 0.585-1.755 0.919-2.507c0.835-1.672 1.504-3.093 2.089-4.764 c0.251-0.836 0.418-1.588 0.668-2.34c0.167-0.836 0.752-1.421 0.919-2.34c0.418-1.17 0.585-2.424 1.003-3.677 c0.417-1.421 0.835-2.674 1.42-4.429c0.167-0.753 0.25-1.672 1.087-2.09c0.333-0.167 2.005-0.167 2.34-0.167 c0.752 0 1.42 0.17 2.09 0.167c1.337 0 3.008-0.752 3.68 0.418c0.25 0.752-0.501 1.253-0.669 1.92 c-0.25 0.501-0.25 1.17-0.417 1.505c-0.251 0.585-0.668 1.002-0.752 1.587c-1.086 2.758-1.587 5.934-3.175 8.11 c-0.418 1.838-1.087 3.51-1.755 4.847c-0.083 0.418-0.418 0.752-0.669 1.17c-0.167 0.334-0.083 0.836-0.25 1.25 c-0.251 0.501-0.669 0.752-0.92 1.337c-0.752 1.337-0.835 3.175-1.42 4.596c-0.251 0.501-0.752 0.836-1.003 1.25 c-0.501 0.752-0.919 1.922-1.086 2.925c-0.585 2.173-0.919 4.429-2.173 6.017c0.084 0.836-0.417 1.671-0.835 2.51 c-0.167 0.251-0.418 0.669-0.418 1.086c0 0.92-0.668 1.672-1.17 2.591c-0.585 0.669-1.17 1.087-1.587 1.75 c-0.418 0.585-0.418 1.421-0.752 2.09c-0.083 0.417-0.417 0.835-0.417 1.253c-0.167 0.251-0.167 0.502-0.25 0.67 c-0.167 0.334-0.418 0.501-0.585 0.835c-0.25 0.251-0.418 0.669-0.752 1.003c-0.251 0.418-0.501 0.92-0.836 1.34 c-0.334 0.25-0.668 0.417-0.919 0.668c-0.836 0.836-1.671 1.672-2.507 2.34c-1.086 1.003-2.256 2.507-3.677 2.76 c-0.334 0.084-0.752-0.084-1.086-0.084c-0.836 0.084-1.588 0.669-2.591 0.753c-1.253 0.167-2.758 0-4.095-0.251 c-1.504-0.334-1.671-0.836-2.674-1.839c-0.334-0.418-1.086-0.919-1.42-1.337c-0.501-0.752-0.501-1.672-0.752-2.591 c0-0.585-0.251-0.835-0.585-1.17c-0.251-0.334-0.251-0.585-0.251-1.17c0-0.167 0-0.334 0-0.501s-0.251-0.334-0.251-0.418 c0.251-3.009 0.502-5.349 1.337-7.855c0.501-1.337 1.337-2.758 1.838-4.262c0.334-0.418 0.668-1.003 0.501-1.755 c-0.083-0.752 0.418-1.337 0.668-1.922c0.334-0.752 0.585-1.421 0.919-2.256c0.668-1.588 1.253-2.925 1.838-4.43 c0.167-0.501 0.501-0.919 0.752-1.421c0.752-1.838 1.086-4.011 2.423-5.348c0.334-1.755 0.668-3.928 1.337-5.767 c0.335-0.752 0.752-1.253 1.254-1.838c0.334-0.669 0.167-1.421 0.334-2.173c0.083-0.418 0.417-0.752 0.752-1.003 c0.585-0.752 0.585-1.922 0.919-2.841c0.167-0.418 0.418-0.92 0.418-1.254c0.083-0.418-0.167-0.919-0.167-1.421 c0.167-0.334 0.418-0.752 0.668-1.086c0.25-1.087 0.25-2.173 1.17-2.591c1.42-0.669 3.008-0.501 4.429-0.167 c0.669 0.17 1.42 0.17 2.09 0.167c0.167 0 0.5 0 0.84 0C105.067 144.58 105.4 144.58 105.57 144.745z"/><path d="M195.076 117.114c-0.167 0.835-0.417 1.42-0.752 2.089c-0.501 1.421-1.086 2.841-1.17 4.34 c0 0.502-0.752 1.254-1.003 1.839c-0.334 0.251-0.334 0.669-0.417 1.086c0 0.17 0 0.42 0 0.58 c-0.167 0.418-0.251 0.669-0.585 0.92c-0.167 0.501-0.251 0.835-0.418 1.17c-0.418 0.836-0.668 1.504-1.003 2.34 c-0.25 0.836-0.501 1.671-0.835 2.423c-0.083 0.335-0.334 0.669-0.501 1.087c0 0.083-0.585 0.836-0.585 0.92 c0.251 1.17-0.585 1.588-0.835 2.257c-0.585 1.17-0.836 2.507-1.253 3.677c-0.418 1.086-1.086 1.922-1.588 2.92 c-0.25 0.836-0.25 1.838-0.919 2.34c-0.167 1.17-0.752 1.838-1.086 2.674c-0.168 1.086-0.753 2.089-1.17 3.09 c-0.501 1.087-0.753 2.257-1.253 3.176c-0.084 0.418-0.585 0.836-0.669 1.254c-0.417 0.835-0.585 1.671-0.835 2.59 c-0.334 0.502-0.334 1.087-0.418 1.421c-0.334 0.501-0.752 0.919-0.835 1.337c-0.418 0.669-0.585 1.672-0.836 2.51 c-0.167 0.251-0.25 0.669-0.417 0.92c-0.167 0.501-0.334 0.919-0.334 1.337c0.167 0.5 1.25 0.25 1.67 0.25 c0.835 0.17 1.84 0.58 2.67 0.585c0.417 0 1.002-0.335 1.253-0.335c2.256-0.25 4.34 0 6.43 0c0.418 0 0.58 0 0.58 0.58 c0 0.25 0 0.669-0.167 1.003c-0.083 0.334-0.25 0.669-0.418 1.087c-0.167 0.417-0.25 0.835-0.417 1.42 c-0.083 0.34 0 0.92-0.418 1.087c-0.501 0.083-1.086 0.083-1.671 0.334c-1.253 0-2.423-0.251-3.51-0.251 c-1.755 0-3.593 0.335-5.265 0.251c-1.253 0-3.509-0.585-5.181-0.501c-1.003 0.167-2.006 0.501-2.925 0.5 c-1.003 0-2.507 0.251-2.841-0.836c-0.25-0.835 0.752-1.755 0.835-2.423c0.167-0.585 0.418-1.17 0.585-1.672 c0.084-0.418 0.418-0.835 0.669-1.086c0.167-0.418 0.501-0.836 0.585-1.337c0.417-0.92 0.752-1.755 1.002-2.758 c0.668-1.755 1.253-3.677 1.922-5.432c0.167-1.421 0.836-2.507 1.421-3.677c0.919-1.923 1.671-3.594 2.507-5.684 c0.167-0.25 0.585-0.501 0.585-0.835c0.083-0.418 0.083-0.836 0.25-1.254c0.167-0.334 0.418-0.585 0.585-0.835 c0.084-0.418 0-1.003 0.251-1.421c0.25-0.418 0.418-0.836 0.585-1.254c0.25-0.418 0.501-0.835 0.835-1.254 c0.251-0.501 0.501-1.253 0.836-1.922c0.25-0.585 0.668-1.002 0.835-1.587c0-0.669 0.167-1.087 0.418-1.672 c0.25-0.836 0.585-1.671 0.919-2.507c0.501-0.669 0.836-1.421 1.338-2.089c0.25-0.502 0.25-1.254 0.5-1.839 c0.168-0.418 0.418-0.669 0.585-1.086c0.251-0.418 0.084-1.003 0.418-1.505c0-0.418 0.418-0.668 0.418-1.003 c0.334-0.835 0.334-1.671 0.585-2.674c0-0.418 0.334-0.836 0.585-1.253c0.25-1.087 0.25-2.173 0.835-3.176 c0-0.167 0.083-0.167 0.251-0.334c0.083-0.251 0.083-0.418 0.083-0.502c0.167-0.418 0.501-0.752 0.752-1.17 c0.083-0.501 0.418-0.919 0.668-1.504c0.167-0.084 0.167-0.585 0.251-0.669c0.167 0 0.33 0 0.334-0.167 c0.167 0 0.167-0.084 0.167-0.084c0.251-0.167 0.334-0.167 0.669-0.167c1.086 0 2.26 0.17 3.34 0.167c0.668 0 1.42 0 2.09 0 c0.25 0.08 0.67 0.08 1 0.335C195.912 116.03 195.08 116.53 195.08 117.114z"/><path d="M279.828 117.148c-0.418 0.752-1.002 1.421-1.42 2.173c-0.168 0.335-0.586 0.836-1.004 1.09 c-0.334 0.25-0.502 0.25-1.086 0.25c-0.418 0-0.752 0-1.086-0.083c-0.418 0-0.752-0.167-1.17-0.167 c-1.672-0.251-3.678 0.25-4.764 1.838c-0.168 0.084-0.251 0.669-0.334 1.087c-0.919 1.42-1.756 3.677-2.257 5.6 c-0.417 0.919-0.919 1.838-1.17 2.758c-0.083 0.33 0 0.585-0.083 0.836c-0.334 1.002-1.004 1.838-1.588 2.84 c-0.084 0.418-0.084 0.919-0.418 1.254c-0.167 0.585-0.585 0.835-0.836 1.337c-0.167 0.418-0.25 1.17-0.501 1.67 c-0.501 1.17-0.919 2.256-1.337 3.677c-0.168 0.669-0.168 1.672-0.502 2.257c-0.334 0.668-1.17 1.086-1.588 1.84 c-0.668 1.337-1.42 3.594-2.089 5.265c-0.501 1.756-1.839 3.343-2.34 4.931c-0.083 0.502-0.334 0.919-0.417 1.42 c-0.168 0.501-0.252 0.752-0.418 1.337c0 0.669-0.752 1.254-0.92 1.922c-0.084 0.502-0.084 0.836-0.084 1.25 c-0.083 0.167-0.083 0.418-0.25 0.585c-0.251 0.585-0.167 1.086-0.251 1.755c-0.167 0.585-0.501 1.17-0.585 1.67 c0 0.585-0.167 1.086-0.501 1.505c-0.084 0.501-0.167 1.086-0.418 1.838c0 0.334-0.083 1.337-0.501 1.75 c-0.92 1.003-2.424 0.669-4.179 0.669c-1.421-0.084-4.012 1.003-4.597-0.251c-0.502-0.669 0.418-2.089 0.836-3.092 c0.334-1.087 0.919-2.257 1.086-2.925c0.168-0.418 0.168-0.836 0.334-1.254c0.251-0.418 0.586-0.836 0.752-1.253 c0.168-0.335 0.168-0.836 0.336-1.087c0.082-0.585 0.418-0.919 0.584-1.421c0.25-0.417 0.084-1.002 0.418-1.42 c0.168-0.418 0.334-0.669 0.669-1.087c0-0.167 0.083-0.25 0.083-0.585c0-0.167 0-0.418 0-0.501c1.17-2.173 1.756-4.764 2.926-6.602 c0-1.588 1.17-2.925 1.671-4.346c0.167-0.585 0.167-1.17 0.334-1.504c0.251-0.585 0.752-0.836 1.003-1.421 c0.836-1.755 1.42-3.594 2.089-5.432c2.34-4.764 3.928-10.446 6.519-15.126c0-0.083-0.168-0.418-0.168-0.501 c0-0.167 0-0.335 0.168-0.502c0-0.167 0.167-0.501 0.334-0.668c0.418-0.502 0.836-1.087 1.003-1.755c0-0.334 0-0.334-0.335-0.334 c-0.25-0.084-0.668-0.084-1.002-0.084c-0.669 0-1.254-0.167-1.922-0.167c-0.669 0-1.421 0.251-2.09 0.25 c-0.919 0.167-2.006 0-2.924 0c-0.168 0-0.252 0-0.252-0.084c-0.166-0.335 0.084-0.752 0.252-1.086 c0.083-0.585 0.083-1.589 0.5-2.174c0.168-0.25 0.418-0.585 0.586-0.835c0.167-0.084 0.334-0.585 0.418-0.669 c0.25-0.167 0.584-0.167 0.836-0.167c0 0 0.166-0.167 0.25-0.167c0.334-0.167 1 0 1.34 0c0.836 0 1.67 0 2.34 0 s1.253 0 2.01 0c1.504 0.17 3.01 0 4.6 0c3.593-0.167 7.187-0.669 10.362-0.418c0.586 0 1.17 0.25 1.76 0.25 c0.416 0 1.002-0.335 1.42 0C280.496 115.64 280.08 116.65 279.83 117.148z"/><path d="M339.454 43.7c0 1.504-0.586 2.591-1.087 3.594c-1.087 1.588-1.087 3.175-1.588 4.847c-0.501 0.418-0.501 0.418-1.086 1 c0 0.5 0 1 0 1.003c-0.501 1.086-1.003 1.587-1.003 2.089c-0.502 1.086-0.502 1.588-0.502 2.76 c-0.584 0.501-1.086 1.086-1.086 1.588c-0.502 0.418-0.502 1.003-0.502 1.504c-0.668 0.501-0.668 0.501-0.668 1 c-0.502 1.086-0.919 2.173-0.919 3.175c-1.087 1.17-1.588 2.758-2.173 4.263c-0.502 1.003-0.502 1.587-1.004 2.59 c0 0.669-0.501 1.17-0.501 1.17c-0.584 0.502-0.584 1.003-0.584 1.588c-0.501 1.003-1.003 2.006-1.589 3.09 c0 0.5 0 1 0 1.003c-0.501 1.087-1.002 1.588-1.002 2.09c-0.669 1.17-0.669 2.256-1.17 2.76 c-0.418 1.086-0.418 2.005-1.004 2.507c0 1.086-0.5 1.588-1.002 2.256c-1.086 0.502-2.674 0.502-3.677 0.5 c-1.17 0-2.758 0-4.262-0.502c-0.502 0 0-1.671 0.584-1.671c0-0.585 0-1.087 0.502-1.087c0-0.501 0.418-0.919 0.418-1.504 c0.585-0.501 0.585-1.003 1.086-2.089c0 0 0.5 0 0.502-0.502c0-0.668 0-0.668 0-1.17c0 0 0.501-0.501 0.501-1.003 c0.669-0.585 0.669-1.086 1.17-1.588c0.502-1.504 0.502-2.59 1.086-3.677c0-1.504 1.004-2.173 1.004-3.76 c0 0 0.584-0.502 0.584-1.003c0.502-0.585 0.502-1.087 1.004-1.505c0.5-0.585 0.5-1.588 1.086-2.758 c0.418-1.002 0.418-1.587 0.919-2.59c0-1.087 0.669-1.588 1.17-2.674c0.501-1.505 1.589-3.176 2.09-4.179 c0.584-1.087 1.085-1.588 1.085-2.674c0.502-1.003 0.502-2.006 1.004-3.176c0-0.502 0.585-1.003 1.086-1.504 c0.502-1.087 1.087-2.675 1.504-4.263c0 0 0.502-0.501 0.502-1.086c0 0 0-0.418 0-0.919c0 0 0.668-0.502 0.668-1.17 c0-0.502 0-0.502 0-1.003c0-0.585 0.502-1.588 1.004-2.173c0-1.003 0-2.089 0.584-3.677c0-0.502 0.502-0.502 0.502-1.003 c0.502-1.087 0.502-3.176 1.588-3.176c1.002 0 2.09 0.5 3.18 0.501c2.088 0 4.178-0.501 4.18 1.09 c0 1.003-0.502 2.089-0.502 2.591c-0.584 1.086-0.584 2.089-1.086 3.175c-0.502 1.087-1.086 2.09-1.588 2.67 C340.456 42.7 339.95 43.2 339.45 43.7z"/><path d="M362.188 152.243c-0.168 0.585-0.418 1.086-0.502 1.671c-0.502 1.254-0.502 2.758-1.17 3.85 c-0.418 0.585-0.585 1.17-0.836 1.671c-0.25 0.585-0.418 1.003-0.501 1.588c-0.167 0.334-0.669 0.836-0.919 1.25 c-0.084 0.167-0.251 0.501-0.334 0.835c-0.168 0.251-0.502 0.502-0.502 0.753c-0.167 0.919-0.418 1.587-0.668 2.26 c-0.752 1.839-1.505 3.176-2.174 4.847c-0.584 1.672-0.752 3.427-1.42 4.847c-0.251 0.753-0.92 1.254-1.504 1.84 c-0.502 0.501-1.421 0.334-2.09 0.334c-0.836 0.167-1.588 0.167-2.34 0.335c-0.585 0-1.254 0-1.838 0 c-0.418-0.168-1.254 0-1.505-0.335c-0.585-0.334 0-1.588 0.167-2.173c0.168-0.501 0.502-1.253 0.669-1.755 c0.585-1.253 1.421-2.34 1.755-3.51c0.752-1.253 1.002-2.59 1.671-3.677c0.335-0.668 0.837-0.919 1.003-1.421 c0.752-1.253 1.087-2.674 2.006-3.76c0-1.003 0.502-1.588 0.585-2.34c0.669-2.257 1.253-4.597 2.257-6.519 c0.166-0.334 0.166-0.752 0.25-0.919c0.168-0.334 0.502-0.669 0.836-0.919c0.334-0.502 0.334-1.087 0.585-1.588 c0.669-1.421 1.755-3.009 2.34-4.346c0.251-0.585 0.251-1.17 0.418-1.504c0.752-1.672 1.003-3.427 1.671-4.68 c0.168-0.502 0.502-0.753 0.669-1.087c0.251-0.668 0.417-1.337 0.752-2.089c0.334-0.502 0.919-0.919 1.253-1.421 c0.168-0.334 0.168-0.752 0.168-1.17c1.086-2.34 2.674-5.098 3.76-7.604c0.502-1.003 0.752-1.838 1.17-2.842 c0.418-1.086 1.086-2.674 2.34-3.008c1.254-0.084 3.43 0 5.43 0c2.089-0.084 4.09 0 5.68 0.5 c0.418 0.17 0.5 0.75 1.09 1.087c0.418 0.17 1 0 1.42 0.167c0.335 0.5 0.5 0.92 0.84 1.42 c0.251 0.5 0.75 0.75 1.09 1.253c0.167 0.58 0.42 1.09 0.58 1.672c0.334 1.25 0.67 2.59 0.5 4.01 c0 0.334-0.334 0.585-0.334 1.003c-0.083 0.84 0 1.839-0.083 2.591c-0.084 0.919-0.502 1.588-0.837 2.34 c-0.166 0.334-0.166 0.752-0.333 1.17c-0.502 1.253-1.422 2.34-2.34 3.593c-0.92 1.505-2.174 3.761-3.51 5.01 c-0.335 0.25-0.752 0.417-1.17 0.668c-0.669 0.836-1.672 2.006-2.842 2.34c-0.334 0.168-0.752 0-1.004 0.17 c-0.584 0.083-0.918 0.835-1.42 0.919c-0.585 0.167-1.504 0-2.173 0.167c-0.752 0-1.253 0.251-1.671 0.25 c-1.922 0-4.012 0.501-6.184 0.668C362.771 150.74 362.27 151.91 362.19 152.243z M378.232 132.1 c0.418-0.919 1.17-1.922 1.253-2.674c0.585-3.761-2.507-3.092-5.099-2.674c-2.005 1.755-2.674 4.68-4.178 6.77 c-0.25 0.418-0.167 1.254-0.418 1.671c-0.083 0.502-0.584 1.003-0.668 1.672c-0.168 0.417-0.334 0.919-0.418 1.5 c-0.167 0.502-0.585 1.003-0.752 1.588c-0.334 1.254-0.92 1.922-0.251 2.674c1.671 0.34 3.76 0.58 5.015-0.083 c0.417-0.251 0.585-0.585 0.752-0.836c0.334-0.334 0.752-0.418 0.918-0.836c0.252-0.25 0.252-0.585 0.502-0.919 c0.502-0.919 1.004-1.588 1.422-2.507C377.146 135.7 377.73 133.94 378.23 132.104z"/><path d="M458.861 63.272c-0.167 0.835-0.417 1.42-0.752 2.089c-0.501 1.421-1.086 2.841-1.17 4.345c0 0.502-0.752 1.254-1.003 1.84 c-0.334 0.251-0.334 0.669-0.417 1.086c0 0.17 0 0.42 0 0.585c-0.168 0.418-0.251 0.669-0.585 0.92 c-0.168 0.501-0.251 0.835-0.418 1.17c-0.418 0.836-0.669 1.504-1.003 2.34c-0.251 0.836-0.501 1.671-0.836 2.42 c-0.083 0.335-0.334 0.669-0.501 1.087c0 0.083-0.585 0.836-0.585 0.919c0.251 1.17-0.586 1.588-0.836 2.26 c-0.585 1.17-0.836 2.507-1.253 3.677c-0.419 1.086-1.087 1.922-1.589 2.925c-0.25 0.836-0.25 1.838-0.919 2.34 c-0.167 1.17-0.752 1.838-1.086 2.674c-0.168 1.086-0.753 2.089-1.17 3.092c-0.502 1.087-0.753 2.257-1.254 3.18 c-0.084 0.418-0.585 0.836-0.669 1.254c-0.417 0.835-0.585 1.671-0.835 2.59c-0.335 0.502-0.335 1.087-0.418 1.42 c-0.334 0.501-0.752 0.919-0.836 1.337c-0.418 0.669-0.585 1.672-0.836 2.507c-0.167 0.251-0.25 0.669-0.417 0.92 c-0.168 0.501-0.335 0.919-0.335 1.337c0.167 0.5 1.25 0.25 1.67 0.251c0.835 0.17 1.84 0.58 2.67 0.58 c0.418 0 1.003-0.335 1.254-0.335c2.256-0.25 4.34 0 6.43 0c0.418 0 0.58 0 0.58 0.585c0 0.25 0 0.669-0.166 1 c-0.084 0.334-0.251 0.669-0.418 1.087c-0.168 0.417-0.251 0.835-0.418 1.42c-0.083 0.34 0 0.92-0.418 1.09 c-0.502 0.083-1.087 0.083-1.672 0.334c-1.253 0-2.423-0.251-3.51-0.251c-1.755 0-3.593 0.335-5.265 0.25 c-1.253 0-3.509-0.585-5.181-0.501c-1.003 0.167-2.006 0.501-2.925 0.501c-1.003 0-2.507 0.251-2.842-0.836 c-0.25-0.835 0.752-1.755 0.836-2.423c0.168-0.585 0.418-1.17 0.585-1.672c0.084-0.418 0.418-0.835 0.669-1.086 c0.167-0.418 0.501-0.836 0.585-1.337c0.417-0.92 0.752-1.755 1.003-2.758c0.668-1.755 1.253-3.677 1.922-5.432 c0.167-1.421 0.836-2.507 1.42-3.677c0.92-1.923 1.672-3.594 2.508-5.684c0.167-0.25 0.585-0.501 0.585-0.835 c0.083-0.418 0.083-0.836 0.25-1.254c0.168-0.334 0.418-0.585 0.585-0.835c0.084-0.418 0-1.003 0.251-1.421s0.418-0.836 0.585-1.254 c0.251-0.418 0.502-0.835 0.836-1.254c0.251-0.501 0.501-1.253 0.836-1.922c0.25-0.585 0.668-1.002 0.835-1.587 c0-0.669 0.167-1.087 0.418-1.672c0.251-0.836 0.585-1.671 0.919-2.507c0.502-0.669 0.836-1.421 1.338-2.089 c0.25-0.502 0.25-1.254 0.501-1.839c0.167-0.418 0.418-0.669 0.585-1.086c0.251-0.418 0.084-1.003 0.418-1.505 c0-0.418 0.418-0.668 0.418-1.003c0.334-0.835 0.334-1.671 0.585-2.674c0-0.418 0.334-0.836 0.585-1.253 c0.25-1.087 0.25-2.173 0.835-3.176c0-0.167 0.084-0.167 0.252-0.334c0.083-0.251 0.083-0.418 0.083-0.502 c0.167-0.418 0.502-0.752 0.752-1.17c0.083-0.501 0.418-0.919 0.669-1.504c0.166-0.084 0.166-0.585 0.251-0.669 c0.167 0 0.33 0 0.334-0.167c0.167 0 0.167-0.084 0.167-0.084c0.251-0.167 0.334-0.167 0.669-0.167 c1.086 0 2.26 0.17 3.34 0.167c0.669 0 1.42 0 2.09 0c0.25 0.08 0.67 0.08 1 0.34 C459.697 62.19 458.86 62.69 458.86 63.272z"/><path d="M485.438 163.045c-0.167 0.335-0.167 1.421-0.585 1.421c-1.253 0.418-2.507 0.669-3.844 0.67 c-1.421 0.167-2.758 0.167-4.346 0c-0.083 0-0.334 0-0.668-0.168c-0.084 0-0.418-0.083-0.502 0c-0.334 0-0.585 0.168-0.752 0.34 c-0.418 0.417-0.418 0.919-0.668 1.504c-0.585 0.836-1.254 1.755-1.755 2.591c-1.171 1.922-2.09 4.178-2.926 6.27 c-1.003 2.172-1.922 4.763-2.591 7.27c0.502 0.84 1.59 0.25 2.34 0.418c1.923 0 4.09 0.42 6.02 0.42 c0.836 0.84 0.58 1.92 0.17 2.925c-0.251 0.502-0.585 1.087-0.668 1.588c-0.335 0.585-0.418 1.17-1.003 1.42 c-0.669 0.418-1.505 0.418-2.341 0.418c-1.086 0-2.34-0.251-3.426-0.251c-0.418 0-0.836 0.251-1.254 0.25 c-1.003 0-1.42-0.669-2.34-0.418c-0.835 0.25-1.086 1.086-1.42 1.755c-0.251 0.752-0.418 1.17-0.836 1.67 c-0.418 0.418-0.251 0.585-0.418 1.254c-0.083 0.668-0.418 1.253-0.668 1.922c-0.502 1.504-1.087 2.925-1.672 4.43 c-0.668 1.504-1.755 3.176-2.173 4.597c-0.25 0.835-0.25 1.504-0.585 2.34c-0.083 0.501-0.418 1.086-0.418 1.34 c0.168 1.42 1.67 1 3.09 1.003c0.919 0.08 1.92 0.25 2.84 0.25c0.836 0 1.671-0.25 2.26 0.17 c0.251 0.84 0.08 1.76 0 2.591c-0.25 0.669-0.668 1.254-0.835 1.922c-0.168 0.418-0.168 1.003-0.585 1.42 c-0.836 0.836-2.34 0.669-3.26 0.669c-1.922 0-4.763 0-6.685 0.167c-1.087 0-2.006 0.251-2.758 0.25 c-0.669-0.168-1.504-0.251-2.173-0.418c-0.669 0-1.505 0-2.34-0.167c-0.418-0.084-1.003 0-1.421-0.418 c-0.251-0.251 0.752-2.842 0.836-3.26c0.334-1.002 0.668-2.089 1.086-3.092c0.334-0.919 0.586-1.922 0.836-2.841 c0.334-0.669 1.003-1.087 1.42-1.839c0.252-0.668 0.67-1.337 1.087-2.006c1.839-2.925 3.343-6.351 4.68-9.944 c0.335-0.752 0.418-1.587 0.669-2.256c0.167-0.418 0.585-0.836 0.836-1.254c0.334-0.668 0.585-1.671 0.835-2.34 c0.418-0.919 1.254-1.922 1.672-2.841c0-0.418 0-0.836 0.167-1.17c0.501-1.337 1.337-2.758 2.089-4.012 c-0.334-1.086 0.418-1.17 0.752-1.922c0.418-0.919 0.585-2.173 1.421-2.758c0.167 0 0-0.501 0-0.668 c0-0.251 0.167-0.585 0.251-0.669c0.167-0.418 0.585-0.836 0.835-1.253c0.335-0.669 0.585-1.505 1.087-1.923 c0-1.42 0.418-2.256 1.003-2.925c0.167-0.167 0.167-0.417 0.167-0.585c0.083-0.083 0.083-0.25 0.25-0.417 c0-0.335 0.168-0.669 0.251-0.92c0.334-0.668 0.585-1.253 0.836-1.838c0.251-0.752 0.668-1.504 1.003-2.173 c0.083-0.418 0.25-0.836 0.418-1.254c0.083-0.083 0.083-0.251 0.25-0.501c0-0.167 0.167-0.335 0.167-0.418c0.084 0 0.08 0 0.25 0 c0.167-0.167 0.251-0.167 0.418-0.167c0.418 0 0.669-0.167 0.919-0.167c0.836-0.084 1.589-0.084 2.26 0 c1.087 0 2.09 0.42 3.18 0.417c0.167 0 0.919-0.25 1.253-0.417c1.672-0.084 3.26 0.17 5.18 0 c2.005-0.084 4.178-0.251 4.34 0.752c0.251 0.919-0.334 1.588-0.835 2.34c-0.335 0.25-0.418 0.501-0.585 0.84 C485.438 162.96 485.44 163.04 485.44 163.045z"/><path d="M59.572 317.465c-0.168 0.5 0 0.919-0.168 1.338c-0.584 2.424-2.591 5.432-4.011 7.27 c-1.087 1.337-2.674 3.008-4.012 4.596c-1.002 1.17-1.086 1.17-2.841 1.838c-1.17 0.418-2.005 0.586-3.593 0.59 c-1.838-0.168-3.426-0.586-4.847-1.422c-1.838-1.002-2.841-1.754-4.262-3.258c-0.585-0.753-1.504-1.589-1.588-2.34 c-0.167-1.003 0.585-2.424 1.003-3.594c0.417-1.253 1.003-2.256 2.089-2.423c2.59 0 2.17 3.34 3.51 4.59 c0.835 0.84 4.26 1.76 6.52 1.17c1.337-0.334 1.588-1.337 2.758-1.754c3.426-5.014-0.418-12.117 0.418-18.051 c-1.17-5.265-1.755-12.285-0.585-17.883c0.167-0.669 0.752-1.254 0.585-2.173c2.005-3.928 3.593-8.273 7.02-10.863 c1.254-0.251 2.758-1.589 4.262-1.673c1.002-0.166 2.34 0 3.34 0c0.836 0 2.09 0.08 3.01 0.42 c0.417 0.17 0.83 0.42 1.25 0.668c0.835 0.34 1.75 0.5 2.34 0.92c0.417 0.42 0.42 0.84 0.83 1.25 c0.251 0.42 0.67 0.59 0.84 1.003c0.418 1 0 2.006-0.25 3.343c-0.418 1.003-0.92 2.005-1.421 2.84 c-0.335 0.251-0.753 0.586-0.919 1.003c-0.251 0.251-0.251 0.836-1.004 0.836c-0.836 0-1.253-2.423-1.67-3.259 c-0.753-1.421-1.923-1.923-4.18-1.421c-1.002 0.084-2.256 0.668-3.008 1.254c-0.836 0.584-1.254 1.587-1.838 2.67 c-0.168 0.502-0.418 0.752-0.586 1.17c-0.584 1.587-0.418 3.426-0.835 5.181c-0.418 1.003-1.17 1.839-1.337 2.67 c0 0.58 0.17 1 0.33 1.588c0.083 1.59 0.08 2.92 0.58 4.429c0.418 1.92 1 4.01 1.5 5.77 c0.166 0.67 0.17 1.25 0.33 2.005c0.25 0.67 0.67 1.42 0.84 2.006c0.334 1.67 0.17 3.68 0.42 5.6 C60.324 316.21 59.74 316.8 59.57 317.465z"/><path d="M207.917 291.883c-0.25 0.668-0.166 1.421-0.25 2.09c-0.334 0.835-0.836 1.671-1.17 2.34c-0.084 0.42 0 0.835-0.084 1.25 c-0.166 0.752-0.584 1.588-0.836 2.424c-0.334 0.918-0.584 1.838-0.835 2.841c-0.251 0.753-0.251 1.756-0.501 2.59 c0 0.419-0.168 0.67-0.418 1.087c-0.084 0.417-0.418 0.836-0.669 1.17c-0.251 0.502-0.835 1.087-0.835 1.67 c-0.168 0.75 0.25 1.42 0.17 2.256c-0.166 0.669-0.584 1.003-0.835 1.672c-0.335 0.501-0.418 1.337-0.585 1.92 c-0.585 2.675-1.421 5.182-1.922 7.939c-0.168 0.752-0.418 1.42-0.585 2.006c-0.251 0.668-0.669 1.17-0.836 1.67 c-0.167 0.59 0 1.42-0.167 2.09c-0.083 0.417-0.418 0.752-0.501 1.17c-0.167 0.42 0 0.84 0 1.25 c-0.167 0.669-0.418 1.504-0.752 2.34c-0.167 1.003-0.418 2.257-0.752 3.26c-0.084 0.67 0 1.337-0.084 1.92 c-0.167 0.252-0.417 0.586-0.417 0.836c-0.167 0.42 0 0.836-0.167 1.087c-0.167 0.417-0.585 0.752-0.668 1.17 c-0.167 0.5 0 0.84 0 1.253c-0.25 0.836-0.585 1.504-0.835 2.09c-0.167 0.417-0.251 0.668-0.585 1.09 c-0.083 0.334-0.251 0.167-0.501 0.167c-0.752 0-1.42 0-2.089 0.167c-0.753 0.084-1.421 0-2.006 0c-0.418 0-0.835 0.251-1.253 0 c-0.334-0.752 0-1.839 0.25-2.674c0.168-0.585 0.669-1.003 0.753-1.337c0.167-0.502 0-1.17 0.167-1.755 c0.083-0.418 0.418-1.003 0.502-1.421c0-0.417-0.083-0.669 0-0.919c0.167-0.752 0.418-1.254 0.585-2.006 c0.167-0.418 0.585-1.337 0.25-1.922c-0.083-0.334-0.918-0.334-1.337-0.334c-0.501 0-1.086 0-1.588 0c-1.002 0-2.089 0.084-3.175 0 c-0.418 0-0.835-0.252-1.253-0.252c-0.334 0-0.418 0.252-0.752 0.252c-0.501 0.167-1.253 0-1.755-0.168 c-0.251 0-0.668 0.168-0.919 0c-0.25 0-0.585-0.084-0.668 0c-0.334 0.168-0.417 0.252-0.417 0.5 c-0.167 0.251-0.418 0.418-0.585 0.668c-0.251 0.753-0.585 1.422-0.836 2.006c-0.418 0.502-1.086 1.337-1.421 1.92 c-0.752 1.504-0.919 2.924-1.337 3.927c-0.167 0.586-0.668 1.003-1.003 1.671c-0.417 0.669-0.668 1.672-1.587 1.84 c-0.668 0.084-1.253-0.167-1.922 0.084c-0.585 0.167-1.42-0.251-2.089-0.251c-0.251-0.167-0.418-0.167-0.668-0.167 c-0.334-0.083-0.418-0.083-0.752-0.083c-0.418 0-0.251-0.419-0.084-0.753c0.084-0.417 0.084-0.669 0.251-0.919 c0.25-0.585 0.585-1.254 0.668-1.838c0.334-0.502 1.17-1.003 1.588-1.422c0.417-1.253 0.919-2.34 1.504-3.593 c0.418-0.418 1.003-0.835 1.253-1.421c0.418-0.668 0.752-1.671 1.17-2.423c0.167-0.251 0.167-0.585 0.251-0.835 c0.334-0.419 0.835-0.669 1.17-1.087c0.25-0.586 0.417-1.253 0.668-1.839c0.585-1.337 1.337-2.924 1.922-4.513 c0.418-0.92 1.504-1.337 2.089-2.34c0.668-0.919 1.086-3.008 1.838-4.262c0.418-0.836 0.835-1.17 1.003-2.006 c0.25-0.752 0.835-1.003 1.253-1.671c0.417-0.836 0.417-2.089 1.42-2.675c0.501-1.754 1.337-3.51 2.423-4.93 c0.418-0.418 0.752-0.92 1.003-1.338c0.417-0.752 0.835-1.587 1.17-2.423c0.167-0.251 0.25-0.669 0.417-1.087 c0.168-0.417 0.418-0.668 0.669-1.086c0.835-1.17 1.587-2.674 2.423-4.095c1.253-2.256 2.34-5.014 4.095-6.435 c0.585-1.087 1.086-1.922 1.922-2.674c0.919-0.251 1.92 0.42 2.92 0.417c0.835 0.17 2.088-0.25 3.175-0.25 c0.418 0 0.92 0.17 1.25 0.167c0.335 0 0.418-0.167 0.752-0.167c0.084-0.167 0.252-0.251 0.502-0.251 c0.334 0 0.42 0 0.75 0.084c0.502 0 0.92 0.17 1.34 0.417C208.752 290.04 208.17 290.88 207.92 291.883z M194.212 305.17 c-0.585 1.671-1.838 2.507-2.256 4.179c-0.919 2.005-2.172 3.761-2.757 6.101c-1.421 2.757-3.092 5.515-4.346 8.27 c-0.418 0.835-0.836 1.671-1.254 2.424c-0.25 0.417-1.42 2.088-0.835 2.507c1.086 0.67 2.76 0.25 4.01 0.58 c0.417 0 0.67 0.25 1.09 0.251c0.333 0 0.919-0.167 1.337-0.251c0.25-0.167 0.585-0.167 0.835-0.167 c0.251-0.166 0.418-0.25 0.585-0.584c0.251-0.836 0.501-1.672 0.836-2.34c0.25-0.753 0.501-1.589 0.668-2.424 c0.167-0.418 0.25-0.836 0.25-1.253c0.167-0.252 0.167-0.419 0.167-0.669c0-0.167 0-0.585 0.167-0.669 c0.417-0.752 0.668-1.671 0.919-2.674c0.167-0.418 0.334-0.92 0.334-1.421c0.083-0.334 0-1.003 0.25-1.253 c0-0.167 0.083-0.334 0.251-0.418c0.167-0.168 0.167-0.418 0.25-0.752c0.167-0.501 0.167-1.087 0.334-1.671 c0.083-0.335 0.083-0.92 0.417-1.338c0-0.251 0.084-0.418 0.251-0.668c0.167-0.334 0.167-0.334 0.167-0.753 c-0.167-0.835 0.251-1.671 0.418-2.507c0.334-0.836 0.585-1.838 0-2.674C195.967 304.33 194.71 304.42 194.21 305.17z"/><path d="M288.838 387.708c-0.418 0.752-1.002 1.421-1.42 2.173c-0.168 0.334-0.586 0.835-1.004 1.09 c-0.334 0.25-0.5 0.25-1.086 0.25c-0.418 0-0.752 0-1.086-0.083c-0.418 0-0.752-0.167-1.17-0.167 c-1.672-0.252-3.678 0.25-4.764 1.838c-0.168 0.083-0.25 0.669-0.334 1.086c-0.92 1.421-1.756 3.677-2.256 5.6 c-0.418 0.918-0.92 1.838-1.17 2.758c-0.084 0.33 0 0.585-0.084 0.836c-0.334 1.003-1.004 1.838-1.588 2.84 c-0.084 0.417-0.084 0.919-0.418 1.253c-0.166 0.586-0.584 0.836-0.836 1.337c-0.166 0.419-0.25 1.17-0.5 1.67 c-0.502 1.17-0.92 2.257-1.338 3.677c-0.168 0.668-0.168 1.671-0.502 2.257c-0.334 0.668-1.17 1.086-1.588 1.84 c-0.668 1.337-1.42 3.593-2.088 5.265c-0.502 1.755-1.84 3.342-2.34 4.931c-0.084 0.501-0.334 0.92-0.418 1.42 c-0.168 0.5-0.252 0.752-0.418 1.337c0 0.669-0.752 1.253-0.92 1.922c-0.084 0.501-0.084 0.835-0.084 1.25 c-0.082 0.167-0.082 0.417-0.25 0.584c-0.25 0.586-0.166 1.087-0.25 1.756c-0.168 0.584-0.502 1.17-0.586 1.67 c0 0.585-0.166 1.086-0.5 1.504c-0.084 0.502-0.168 1.086-0.418 1.839c0 0.334-0.084 1.337-0.502 1.75 c-0.92 1.003-2.424 0.669-4.18 0.669c-1.42-0.083-4.01 1.003-4.596-0.25c-0.501-0.669 0.418-2.09 0.836-3.093 c0.334-1.086 0.92-2.256 1.086-2.924c0.168-0.419 0.168-0.836 0.334-1.254c0.252-0.418 0.586-0.836 0.752-1.253 c0.168-0.335 0.168-0.836 0.336-1.087c0.082-0.585 0.418-0.919 0.584-1.42c0.25-0.419 0.084-1.003 0.418-1.422 c0.168-0.417 0.334-0.668 0.67-1.087c0-0.166 0.082-0.25 0.082-0.584c0-0.167 0-0.417 0-0.501c1.17-2.173 1.756-4.763 2.926-6.603 c0-1.587 1.17-2.924 1.672-4.346c0.166-0.584 0.166-1.17 0.334-1.504c0.25-0.584 0.752-0.836 1.002-1.42 c0.836-1.756 1.42-3.594 2.09-5.433c2.34-4.763 3.928-10.446 6.518-15.125c0-0.084-0.168-0.418-0.168-0.502 c0-0.167 0-0.334 0.168-0.501c0-0.167 0.168-0.502 0.334-0.669c0.418-0.501 0.836-1.086 1.004-1.754c0-0.335 0-0.335-0.336-0.335 c-0.25-0.084-0.668-0.084-1.002-0.084c-0.668 0-1.254-0.167-1.922-0.167s-1.42 0.251-2.09 0.251c-0.918 0.168-2.006 0-2.924 0 c-0.168 0-0.252 0-0.252-0.084c-0.166-0.334 0.084-0.751 0.252-1.086c0.084-0.585 0.084-1.588 0.5-2.172 c0.168-0.252 0.418-0.586 0.586-0.836c0.168-0.084 0.334-0.586 0.418-0.669c0.25-0.167 0.584-0.167 0.836-0.167 c0 0 0.166-0.167 0.25-0.167c0.334-0.167 1 0 1.34 0c0.836 0 1.67 0 2.34 0c0.668 0 1.25 0 2.01 0 c1.504 0.17 3.01 0 4.6 0c3.592-0.167 7.186-0.669 10.361-0.418c0.586 0 1.17 0.25 1.76 0.251c0.418 0 1.002-0.334 1.42 0 C289.506 386.2 289.09 387.21 288.84 387.708z"/><path d="M121.046 387.707c-0.417 0.752-1.002 1.421-1.42 2.173c-0.167 0.334-0.585 0.835-1.003 1.09 c-0.334 0.25-0.501 0.25-1.086 0.25c-0.417 0-0.752 0-1.086-0.083c-0.418 0-0.752-0.167-1.17-0.167 c-1.671-0.252-3.678 0.25-4.763 1.838c-0.168 0.083-0.251 0.669-0.335 1.086c-0.919 1.421-1.755 3.677-2.256 5.6 c-0.417 0.918-0.919 1.838-1.17 2.758c-0.083 0.33 0 0.585-0.083 0.836c-0.334 1.003-1.003 1.838-1.588 2.84 c-0.083 0.417-0.083 0.919-0.417 1.253c-0.167 0.586-0.585 0.836-0.836 1.337c-0.167 0.419-0.25 1.17-0.501 1.67 c-0.501 1.17-0.919 2.257-1.337 3.677c-0.167 0.668-0.167 1.671-0.501 2.257c-0.334 0.668-1.17 1.086-1.587 1.84 c-0.668 1.337-1.421 3.593-2.089 5.265c-0.501 1.755-1.838 3.342-2.34 4.931c-0.083 0.501-0.334 0.92-0.417 1.42 c-0.167 0.5-0.251 0.752-0.418 1.337c0 0.669-0.752 1.253-0.919 1.922c-0.083 0.501-0.083 0.835-0.083 1.25 c-0.083 0.167-0.083 0.417-0.25 0.584c-0.251 0.586-0.167 1.087-0.251 1.756c-0.167 0.584-0.501 1.17-0.585 1.67 c0 0.585-0.167 1.086-0.501 1.504c-0.084 0.502-0.167 1.086-0.418 1.839c0 0.334-0.083 1.337-0.501 1.75 c-0.92 1.003-2.423 0.669-4.179 0.669c-1.42-0.083-4.011 1.003-4.596-0.25c-0.501-0.669 0.418-2.09 0.836-3.093 c0.334-1.086 0.919-2.256 1.086-2.924c0.167-0.419 0.167-0.836 0.334-1.254c0.25-0.418 0.585-0.836 0.752-1.253 c0.167-0.335 0.167-0.836 0.334-1.087c0.083-0.585 0.418-0.919 0.585-1.42c0.25-0.419 0.083-1.003 0.418-1.422 c0.167-0.417 0.333-0.668 0.668-1.087c0-0.166 0.083-0.25 0.083-0.584c0-0.167 0-0.417 0-0.501c1.17-2.173 1.755-4.763 2.925-6.603 c0-1.587 1.17-2.924 1.671-4.346c0.167-0.584 0.167-1.17 0.334-1.504c0.251-0.584 0.752-0.836 1.003-1.42 c0.835-1.756 1.42-3.594 2.089-5.433c2.34-4.763 3.928-10.446 6.518-15.125c0-0.084-0.167-0.418-0.167-0.502 c0-0.167 0-0.334 0.167-0.501c0-0.167 0.167-0.502 0.334-0.669c0.418-0.501 0.835-1.086 1.003-1.754c0-0.335 0-0.335-0.334-0.335 c-0.25-0.084-0.668-0.084-1.003-0.084c-0.668 0-1.253-0.167-1.922-0.167s-1.42 0.251-2.089 0.251c-0.919 0.168-2.006 0-2.925 0 c-0.167 0-0.251 0-0.251-0.084c-0.167-0.334 0.083-0.751 0.251-1.086c0.083-0.585 0.083-1.588 0.501-2.172 c0.167-0.252 0.418-0.586 0.585-0.836c0.167-0.084 0.334-0.586 0.418-0.669c0.251-0.167 0.585-0.167 0.836-0.167 c0 0 0.167-0.167 0.25-0.167c0.334-0.167 1 0 1.34 0c0.836 0 1.67 0 2.34 0s1.253 0 2.01 0c1.504 0.17 3.01 0 4.6 0 c3.593-0.167 7.187-0.669 10.363-0.418c0.585 0 1.17 0.25 1.75 0.251c0.417 0 1.002-0.334 1.42 0 C121.714 386.2 121.3 387.2 121.05 387.707z"/><path d="M374.638 302.68c-0.168 0.334-0.168 1.42-0.584 1.42c-1.254 0.418-2.508 0.668-3.846 0.668c-1.42 0.168-2.757 0.168-4.345 0 c-0.083 0-0.335 0-0.669-0.167c-0.083 0-0.418-0.083-0.501 0c-0.335 0-0.585 0.167-0.752 0.34 c-0.418 0.418-0.418 0.918-0.669 1.504c-0.584 0.835-1.253 1.755-1.754 2.591c-1.17 1.922-2.09 4.178-2.926 6.27 c-1.002 2.173-1.922 4.764-2.59 7.271c0.501 0.84 1.59 0.25 2.34 0.419c1.922 0 4.09 0.42 6.02 0.42 c0.836 0.84 0.59 1.92 0.17 2.926c-0.251 0.501-0.585 1.085-0.668 1.587c-0.335 0.584-0.418 1.17-1.004 1.42 c-0.668 0.417-1.504 0.417-2.34 0.417c-1.086 0-2.34-0.25-3.426-0.25c-0.418 0-0.836 0.25-1.254 0.25 c-1.002 0-1.42-0.668-2.34-0.417c-0.835 0.25-1.086 1.086-1.42 1.755c-0.251 0.752-0.418 1.17-0.836 1.67 c-0.418 0.418-0.25 0.585-0.418 1.254c-0.083 0.669-0.418 1.253-0.668 1.922c-0.502 1.504-1.086 2.925-1.672 4.43 c-0.668 1.505-1.754 3.176-2.173 4.596c-0.251 0.836-0.251 1.504-0.585 2.34c-0.084 0.502-0.418 1.087-0.418 1.34 c0.168 1.42 1.67 1 3.09 1.003c0.919 0.08 1.92 0.25 2.84 0.251c0.836 0 1.672-0.251 2.26 0.17 c0.252 0.84 0.08 1.76 0 2.592c-0.25 0.668-0.668 1.253-0.835 1.921c-0.167 0.419-0.167 1.003-0.585 1.42 c-0.836 0.836-2.34 0.669-3.26 0.669c-1.922 0-4.764 0-6.686 0.167c-1.086 0-2.005 0.25-2.758 0.25 c-0.668-0.167-1.504-0.25-2.172-0.417c-0.668 0-1.504 0-2.34-0.167c-0.418-0.084-1.003 0-1.421-0.418 c-0.251-0.251 0.753-2.842 0.836-3.259c0.334-1.003 0.669-2.09 1.087-3.093c0.334-0.92 0.584-1.922 0.835-2.841 c0.335-0.669 1.003-1.087 1.421-1.839c0.25-0.668 0.668-1.337 1.086-2.005c1.838-2.926 3.343-6.352 4.68-9.945 c0.334-0.751 0.418-1.587 0.668-2.257c0.168-0.417 0.586-0.834 0.836-1.253c0.334-0.668 0.586-1.671 0.836-2.34 c0.418-0.918 1.254-1.921 1.672-2.841c0-0.417 0-0.836 0.166-1.17c0.502-1.337 1.338-2.758 2.09-4.011 c-0.334-1.087 0.418-1.17 0.752-1.923c0.418-0.919 0.586-2.173 1.421-2.757c0.167 0 0-0.502 0-0.669 c0-0.251 0.167-0.585 0.251-0.669c0.167-0.418 0.585-0.835 0.836-1.254c0.334-0.668 0.584-1.504 1.086-1.921 c0-1.421 0.418-2.257 1.003-2.926c0.167-0.167 0.167-0.417 0.167-0.584c0.084-0.084 0.084-0.251 0.25-0.419 c0-0.334 0.168-0.668 0.252-0.918c0.334-0.669 0.584-1.254 0.835-1.839c0.251-0.752 0.669-1.504 1.003-2.174 c0.084-0.417 0.25-0.834 0.418-1.253c0.084-0.084 0.084-0.251 0.25-0.501c0-0.167 0.168-0.334 0.168-0.418c0.083 0 0.08 0 0.25 0 c0.168-0.168 0.251-0.168 0.418-0.168c0.418 0 0.669-0.167 0.92-0.167c0.835-0.083 1.588-0.083 2.26 0 c1.086 0 2.09 0.42 3.18 0.419c0.166 0 0.919-0.252 1.253-0.419c1.671-0.083 3.26 0.17 5.18 0 c2.006-0.083 4.18-0.25 4.35 0.753c0.252 0.92-0.334 1.587-0.835 2.34c-0.335 0.25-0.418 0.501-0.585 0.84 C374.638 302.6 374.64 302.68 374.64 302.68z"/><path d="M436.3 404.21c-0.167 0.5 0 0.92-0.167 1.338c-0.585 2.424-2.59 5.432-4.012 7.271c-1.086 1.337-2.674 3.008-4.01 4.6 c-1.004 1.17-1.087 1.17-2.842 1.838c-1.17 0.418-2.006 0.586-3.594 0.586c-1.838-0.168-3.426-0.586-4.847-1.422 c-1.839-1.002-2.841-1.754-4.263-3.258c-0.584-0.753-1.504-1.589-1.587-2.34c-0.167-1.003 0.585-2.424 1.003-3.594 c0.418-1.253 1.002-2.256 2.089-2.423c2.591 0 2.17 3.34 3.51 4.595c0.835 0.84 4.26 1.76 6.52 1.17 c1.337-0.334 1.588-1.337 2.758-1.754c3.426-5.014-0.418-12.117 0.418-18.051c-1.17-5.265-1.756-12.285-0.586-17.883 c0.168-0.669 0.752-1.254 0.586-2.173c2.006-3.928 3.593-8.273 7.02-10.863c1.253-0.251 2.758-1.589 4.262-1.672 c1.002-0.167 2.34 0 3.34 0c0.836 0 2.09 0.08 3.01 0.418c0.417 0.17 0.83 0.42 1.25 0.668c0.835 0.34 1.75 0.5 2.34 0.92 c0.417 0.42 0.42 0.84 0.83 1.253c0.252 0.42 0.67 0.59 0.84 1.003c0.418 1 0 2.006-0.25 3.34 c-0.418 1.003-0.92 2.005-1.421 2.841c-0.335 0.251-0.753 0.586-0.919 1.003c-0.251 0.251-0.251 0.836-1.004 0.84 c-0.836 0-1.253-2.423-1.67-3.259c-0.753-1.421-1.923-1.923-4.18-1.421c-1.002 0.084-2.256 0.668-3.008 1.25 c-0.836 0.584-1.254 1.587-1.838 2.674c-0.168 0.502-0.418 0.752-0.586 1.17c-0.584 1.587-0.418 3.426-0.836 5.18 c-0.417 1.003-1.17 1.839-1.336 2.675c0 0.58 0.17 1 0.33 1.588c0.084 1.59 0.08 2.92 0.58 4.43 c0.417 1.92 1 4.01 1.5 5.767c0.167 0.67 0.17 1.25 0.34 2.005c0.25 0.67 0.67 1.42 0.83 2.01 c0.335 1.67 0.17 3.68 0.42 5.6C437.053 402.96 436.47 403.54 436.3 404.21z"/></svg>